<svg width="64" height="64" viewBox="0 0 64 64" fill="none" xmlns="http://www.w3.org/2000/svg">
<path fill-rule="evenodd" clip-rule="evenodd" d="M20.8267 5.33325H43.1734C52.88 5.33325 58.6667 11.1199 58.6667 20.8266V38.2932C58.6667 39.2799 57.6 40.0266 56.6667 39.7866L55.9467 39.6266C55.52 39.5466 55.1467 39.2799 54.96 38.8799L54.56 38.0532C53.0934 35.0666 50.6934 33.3333 48 33.3333C45.3067 33.3333 42.9067 35.0666 41.44 38.0532L40.72 39.4933L39.92 39.6266C36.7467 40.1599 34.4534 41.9199 33.6267 44.4266C32.8267 46.9599 33.6534 49.7332 35.92 52.0266L36.5067 52.6132C36.6667 52.7732 36.72 52.9866 36.6667 53.1733C36.3467 54.5599 36.2934 55.7599 36.4 56.7733C36.5067 57.7066 35.84 58.6666 34.9067 58.6666H20.8267C11.12 58.6666 5.33337 52.8799 5.33337 43.1733V20.8266C5.33337 11.1199 11.12 5.33325 20.8267 5.33325ZM37.2 31.8399L43.36 23.8933C44.0267 23.0399 43.8934 21.7866 42.9867 21.1199C42.1067 20.4266 40.8534 20.5866 40.1867 21.4666L34.0267 29.4132C33.8667 29.6266 33.68 29.6799 33.5734 29.6799C33.5574 29.6799 33.5406 29.6803 33.5232 29.6807C33.3953 29.6836 33.231 29.6874 33.0667 29.5466L28.1867 25.7066C27.2 24.9333 25.9734 24.5866 24.72 24.7466C23.4667 24.9066 22.3734 25.5466 21.6 26.5333L15.2534 34.7733C14.5867 35.6532 14.7467 36.9066 15.6267 37.5732C16 37.8666 16.4267 37.9999 16.8534 37.9999C17.4667 37.9999 18.0534 37.7332 18.4534 37.2266L24.8 28.9866C24.96 28.7733 25.1467 28.7199 25.2534 28.7199C25.36 28.6933 25.5734 28.6933 25.76 28.8533L30.64 32.6399C31.6 33.4132 32.8534 33.7599 34.08 33.5999C35.3334 33.4666 36.4267 32.8266 37.2 31.8399ZM51.84 41.5733L50.9867 39.84C49.3334 36.5066 46.6667 36.5066 45.0134 39.84L44.16 41.5733C43.7334 42.4266 42.6667 43.2266 41.7334 43.3866L40.5867 43.5733C37.0934 44.16 36.2934 46.6933 38.7734 49.2266L39.84 50.2933C40.56 51.0133 40.9334 52.4266 40.7201 53.4133L40.5867 54.0533C39.6267 58.2666 41.84 59.8933 45.5201 57.68L46.2934 57.2C47.2267 56.64 48.7734 56.64 49.7067 57.2L50.48 57.68C54.1334 59.8933 56.3734 58.2666 55.4134 54.0533L55.28 53.4133C55.0667 52.4 55.44 51.0133 56.16 50.2933L57.2267 49.2266C59.7067 46.72 58.9067 44.16 55.4134 43.5733L54.2667 43.3866C53.3601 43.2266 52.2667 42.4266 51.84 41.5733Z" fill="#68C2FF"/>
</svg>
