<svg width="64" height="64" viewBox="0 0 64 64" fill="none" xmlns="http://www.w3.org/2000/svg">
<path d="M48.0533 32.8799L44.8 29.6266C44.0267 28.9599 43.5733 27.9733 43.5467 26.8799C43.4933 25.6799 43.9733 24.4799 44.8533 23.5999L48.0533 20.3999C50.8267 17.6266 51.8667 14.9599 50.9867 12.8533C50.1333 10.7733 47.4933 9.62658 43.6 9.62658H15.7333V7.33325C15.7333 6.23992 14.8267 5.33325 13.7333 5.33325C12.64 5.33325 11.7333 6.23992 11.7333 7.33325V56.6666C11.7333 57.7599 12.64 58.6666 13.7333 58.6666C14.8267 58.6666 15.7333 57.7599 15.7333 56.6666V43.6533H43.6C47.44 43.6533 50.0267 42.4799 50.9067 40.3732C51.7867 38.2666 50.7733 35.6266 48.0533 32.8799Z" fill="#68C2FF"/>
</svg>
