<svg width="64" height="64" viewBox="0 0 64 64" fill="none" xmlns="http://www.w3.org/2000/svg">
<path d="M31.92 5.33325C17.2 5.33325 5.25333 17.2799 5.25333 31.9999C5.25333 46.7199 17.2 58.6666 31.92 58.6666C46.64 58.6666 58.5867 46.7199 58.5867 31.9999C58.5867 17.2799 46.6667 5.33325 31.92 5.33325ZM41.92 32.9333L32 44.2132L30.8267 45.5466C29.2 47.3866 27.8667 46.9066 27.8667 44.4266V33.8666H23.3333C21.28 33.8666 20.72 32.6132 22.08 31.0666L32 19.7866L33.1733 18.4533C34.8 16.6133 36.1333 17.0933 36.1333 19.5733V30.1333H40.6667C42.72 30.1333 43.28 31.3866 41.92 32.9333Z" fill="#D79CFF"/>
</svg>
