<svg width="64" height="64" viewBox="0 0 64 64" fill="none" xmlns="http://www.w3.org/2000/svg">
<path d="M53.6 24.5867C48.7733 24.5867 46.8 21.1733 49.2 16.9867C50.5867 14.56 49.76 11.4667 47.3333 10.08L42.72 7.43999C40.6133 6.18666 37.8933 6.93333 36.64 9.03999L36.3467 9.54666C33.9467 13.7333 30 13.7333 27.5733 9.54666L27.28 9.03999C26.08 6.93333 23.36 6.18666 21.2533 7.43999L16.64 10.08C14.2133 11.4667 13.3867 14.5867 14.7733 17.0133C17.2 21.1733 15.2267 24.5867 10.4 24.5867C7.62668 24.5867 5.33334 26.8533 5.33334 29.6533V34.3467C5.33334 37.12 7.60001 39.4133 10.4 39.4133C15.2267 39.4133 17.2 42.8267 14.7733 47.0133C13.3867 49.44 14.2133 52.5333 16.64 53.92L21.2533 56.56C23.36 57.8133 26.08 57.0667 27.3333 54.96L27.6267 54.4533C30.0267 50.2667 33.9733 50.2667 36.4 54.4533L36.6933 54.96C37.9467 57.0667 40.6667 57.8133 42.7733 56.56L47.3867 53.92C49.8133 52.5333 50.64 49.4133 49.2533 47.0133C46.8267 42.8267 48.8 39.4133 53.6267 39.4133C56.4 39.4133 58.6933 37.1467 58.6933 34.3467V29.6533C58.6667 26.88 56.4 24.5867 53.6 24.5867ZM32 40.6667C27.2267 40.6667 23.3333 36.7733 23.3333 32C23.3333 27.2267 27.2267 23.3333 32 23.3333C36.7733 23.3333 40.6667 27.2267 40.6667 32C40.6667 36.7733 36.7733 40.6667 32 40.6667Z" fill="#D79CFF"/>
</svg>
