<svg width="64" height="64" viewBox="0 0 64 64" fill="none" xmlns="http://www.w3.org/2000/svg">
<path fill-rule="evenodd" clip-rule="evenodd" d="M24.6133 12.8799C24.6133 8.71986 28 5.35986 32.1333 5.35986C36.2933 5.35986 39.6533 8.71986 39.6533 12.8799C39.6533 17.0399 36.2933 20.3999 32.1333 20.3999C27.9733 20.3999 24.6133 17.0399 24.6133 12.8799ZM52.3733 32.2132C52.48 33.1998 53.3066 33.9465 54.2933 33.9465H54.5066C55.5733 33.8398 56.3466 32.8798 56.24 31.8132C55.4666 24.8532 51.7333 18.5598 45.9466 14.5332C45.0666 13.9198 43.8666 14.1332 43.2533 15.0132C42.64 15.8932 42.8533 17.0932 43.7333 17.7065C48.5866 21.0665 51.7333 26.3465 52.3733 32.2132ZM9.78665 34.0799H9.97332C10.96 34.0799 11.8133 33.3333 11.92 32.3199C12.5067 26.4799 15.6267 21.1999 20.4267 17.7866C21.28 17.1733 21.4933 15.9733 20.88 15.0933C20.2667 14.2399 19.04 14.0266 18.1867 14.6399C12.4533 18.6933 8.77332 24.9866 8.05332 31.9466C7.94665 33.0133 8.71999 33.9733 9.78665 34.0799ZM42.64 56.2665C39.36 57.8398 35.84 58.6398 32.16 58.6398C28.32 58.6398 24.6667 57.7865 21.2533 56.0532C20.2933 55.5998 19.92 54.4265 20.4 53.4665C20.8533 52.5065 22.0267 52.1332 22.9867 52.5865C24.6667 53.4398 26.4533 54.0265 28.2667 54.3732C30.72 54.8532 33.2267 54.8798 35.68 54.4532C37.4933 54.1332 39.28 53.5732 40.9333 52.7732C41.92 52.3198 43.0933 52.6932 43.52 53.6798C44 54.6398 43.6267 55.8132 42.64 56.2665ZM13.4667 36.9866C9.33332 36.9866 5.94666 40.3466 5.94666 44.5066C5.94666 48.6666 9.30666 52.0266 13.4667 52.0266C17.6267 52.0266 20.9867 48.6666 20.9867 44.5066C20.9867 40.3466 17.6 36.9866 13.4667 36.9866ZM43.0133 44.5066C43.0133 40.3466 46.4 36.9866 50.5333 36.9866C54.6933 36.9866 58.0533 40.3466 58.0533 44.5066C58.0533 48.6666 54.6933 52.0266 50.5333 52.0266C46.3733 52.0266 43.0133 48.6666 43.0133 44.5066Z" fill="#D79CFF"/>
</svg>
