<svg width="64" height="64" viewBox="0 0 64 64" fill="none" xmlns="http://www.w3.org/2000/svg">
<path d="M32 5.33337C25.0133 5.33337 19.3333 11.0134 19.3333 18C19.3333 24.8534 24.6933 30.4 31.68 30.64C31.8933 30.6134 32.1067 30.6134 32.2667 30.64C32.32 30.64 32.3467 30.64 32.4 30.64C32.4267 30.64 32.4267 30.64 32.4533 30.64C39.28 30.4 44.64 24.8534 44.6667 18C44.6667 11.0134 38.9867 5.33337 32 5.33337Z" fill="#68C2FF"/>
<path d="M45.5467 37.7333C38.1067 32.7733 25.9733 32.7733 18.48 37.7333C15.0933 40 13.2267 43.0666 13.2267 46.3466C13.2267 49.6266 15.0933 52.6666 18.4533 54.9066C22.1867 57.4133 27.0933 58.6666 32 58.6666C36.9067 58.6666 41.8133 57.4133 45.5467 54.9066C48.9067 52.64 50.7733 49.6 50.7733 46.2933C50.7467 43.0133 48.9067 39.9733 45.5467 37.7333Z" fill="#68C2FF"/>
</svg>
