<svg width="41" height="43" viewBox="0 0 41 43" fill="none" xmlns="http://www.w3.org/2000/svg">
<path d="M39.6313 30.694L35.1638 26.4108C34.9185 26.1757 34.6558 26.0077 34.3579 25.8901C33.6922 25.6214 32.9564 25.6214 32.3081 25.8901C31.8001 26.0917 31.3446 26.4612 31.0292 26.9819C29.7328 29.2327 28.0509 31.1643 26.1413 32.6928C25.826 32.9447 25.5106 33.1799 25.1953 33.415C23.5484 34.5908 21.7614 35.4978 19.9394 36.0689C17.9072 36.724 15.8399 36.9591 13.8777 36.7576H13.8602C13.5273 36.724 13.1944 36.6736 12.8791 36.6064C9.39272 35.9346 7.08015 33.4318 5.69611 31.3323C5.69611 31.3323 5.69611 31.3323 5.69611 31.3155C4.59239 29.6526 4.10184 28.2417 4.10184 28.2417C4.10184 28.2417 0.632995 20.1289 6.60712 11.361C12.4411 2.81146 22.2169 8.05203 22.6725 8.32078C22.6374 8.32078 22.5849 8.32078 22.5498 8.32078C15.3844 8.32078 9.58543 13.8805 9.58543 20.7503C9.58543 26.1421 13.1769 30.7444 18.1875 32.4576C18.5028 32.592 18.8007 32.6928 19.0634 32.76C19.2036 32.7936 19.3262 32.8104 19.4314 32.844C19.4664 32.844 19.5014 32.844 19.5365 32.844C19.7117 32.8943 19.9044 32.9279 20.0796 32.9615C20.0971 32.9615 20.1146 32.9615 20.1321 32.9615C21.3235 32.9951 22.0768 31.7522 21.4636 30.778C21.2534 30.4252 20.8855 30.1733 20.465 30.0893C15.9625 29.1823 12.5637 25.3526 12.5637 20.7503C12.5637 18.0965 13.685 15.6945 15.507 13.9813C17.3115 12.268 19.7817 11.2266 22.5148 11.2266C22.725 11.2266 22.9528 11.2266 23.163 11.2434C23.2331 11.2434 23.2856 11.2434 23.3557 11.2602C23.4258 11.2602 23.4959 11.277 23.5659 11.277C23.636 11.277 23.7061 11.2938 23.7762 11.2938C23.8463 11.2938 23.9163 11.3106 23.9864 11.3274C24.0565 11.3274 24.1266 11.3442 24.1966 11.361C24.2842 11.3778 24.3718 11.3946 24.4419 11.4114C24.547 11.4282 24.6697 11.4618 24.7748 11.4786H24.7923C24.8624 11.4954 24.9325 11.5122 24.985 11.5289C25.0551 11.5457 25.1077 11.5625 25.1777 11.5793C25.2303 11.5961 25.2653 11.5961 25.3179 11.6129C25.3704 11.6297 25.423 11.6465 25.4756 11.6633C25.5106 11.6801 25.5456 11.6801 25.5982 11.6969C25.6508 11.7137 25.7033 11.7305 25.7559 11.7473C25.826 11.7641 25.8785 11.7809 25.9486 11.8145C26.0011 11.8313 26.0712 11.8649 26.1413 11.8817C26.2114 11.8985 26.2815 11.9321 26.334 11.9489C26.3866 11.9657 26.4567 11.9993 26.5092 12.0161C26.5618 12.0328 26.6318 12.0664 26.6844 12.1C26.737 12.1336 26.807 12.1504 26.8596 12.184C26.9472 12.2344 27.0523 12.268 27.1399 12.3184C27.1925 12.352 27.245 12.3688 27.2801 12.4024C27.3151 12.4192 27.3501 12.436 27.3677 12.4528C27.4202 12.4864 27.4903 12.52 27.5429 12.5535C27.5954 12.5871 27.648 12.6207 27.7181 12.6543C27.7706 12.6879 27.8232 12.7215 27.8757 12.7551C27.9283 12.7887 27.9808 12.8223 28.0334 12.8559C28.1035 12.9063 28.1736 12.9399 28.2261 12.9903C28.2612 13.0239 28.3137 13.0407 28.3488 13.0742C28.4188 13.1246 28.4714 13.1582 28.5415 13.2086C28.5765 13.2422 28.6291 13.2758 28.6641 13.2926C28.6641 13.2926 28.6816 13.2926 28.6816 13.3094C28.7517 13.3598 28.8218 13.4102 28.8743 13.4606C28.9094 13.4774 28.9444 13.511 28.9619 13.5278C29.0495 13.6117 29.1546 13.6789 29.2422 13.7629C29.2598 13.7797 29.2773 13.7797 29.2773 13.7965C29.3649 13.8637 29.4525 13.9477 29.5226 14.0317C29.6277 14.1156 29.7153 14.2164 29.8029 14.3172C29.8905 14.4012 29.9605 14.4852 30.0306 14.5692C30.1357 14.6699 30.2233 14.7875 30.3109 14.9051C30.346 14.9555 30.381 14.9891 30.416 15.0395C30.5212 15.157 30.6088 15.2914 30.6964 15.409C30.7314 15.4594 30.784 15.5266 30.819 15.577C30.854 15.6273 30.8891 15.6777 30.9241 15.7449C31.0117 15.8793 31.0993 16.0137 31.1694 16.148C31.2219 16.232 31.257 16.316 31.3095 16.4C31.3621 16.484 31.3971 16.568 31.4497 16.6519C31.5198 16.7695 31.5723 16.9039 31.6249 17.0215C32.203 18.298 33.955 18.6843 35.0237 17.7269L35.0412 17.7101C35.0587 17.6933 35.0762 17.6765 35.0937 17.6597L39.5612 13.3766C40.4547 12.52 40.5948 11.1594 39.8765 10.1684C35.9347 4.50793 29.1897 0.896637 21.5862 0.997418C9.79566 1.16538 0.177489 10.3868 0.00229427 21.691C-0.1729 33.4318 9.70807 42.9892 21.9016 42.9892C29.3824 42.9892 35.9872 39.3947 39.9466 33.9021C40.6649 32.9111 40.5248 31.5506 39.6313 30.694ZM37.6341 11.2434L34.6558 14.0988L34.0776 14.6531C34.0776 14.6531 32.641 12.3016 29.7503 9.7485C27.0874 7.41376 23.1805 4.91105 18.0123 3.92004C18.0123 3.95364 29.7678 0.795857 37.6341 11.2434ZM17.0838 39.6466C17.0838 39.6466 27.6305 39.2939 33.9024 29.0647L37.5815 32.592C37.599 32.6088 30.9241 42.9724 17.0838 39.6466Z" fill="url(#paint0_linear_815_93)"/>
<defs>
<linearGradient id="paint0_linear_815_93" x1="1.86584e-07" y1="21.9923" x2="40.4054" y2="21.9923" gradientUnits="userSpaceOnUse">
<stop stop-color="#68C2FF"/>
<stop offset="1" stop-color="#D79CFF"/>
</linearGradient>
</defs>
</svg>
