<svg width="130" height="43" viewBox="0 0 130 43" fill="none" xmlns="http://www.w3.org/2000/svg">
<g clip-path="url(#clip0_815_92)">
<path d="M39.6313 30.694L35.1638 26.4108C34.9185 26.1757 34.6558 26.0077 34.3579 25.8901C33.6922 25.6214 32.9564 25.6214 32.3081 25.8901C31.8001 26.0917 31.3446 26.4612 31.0292 26.9819C29.7328 29.2327 28.0509 31.1643 26.1413 32.6928C25.826 32.9447 25.5106 33.1799 25.1953 33.415C23.5484 34.5908 21.7614 35.4978 19.9394 36.0689C17.9072 36.724 15.8399 36.9591 13.8777 36.7576H13.8602C13.5273 36.724 13.1944 36.6736 12.8791 36.6064C9.39272 35.9346 7.08015 33.4318 5.69611 31.3323C5.69611 31.3323 5.69611 31.3323 5.69611 31.3155C4.59239 29.6526 4.10184 28.2417 4.10184 28.2417C4.10184 28.2417 0.632995 20.1289 6.60712 11.361C12.4411 2.81146 22.2169 8.05203 22.6725 8.32078C22.6374 8.32078 22.5849 8.32078 22.5498 8.32078C15.3844 8.32078 9.58543 13.8805 9.58543 20.7503C9.58543 26.1421 13.1769 30.7444 18.1875 32.4576C18.5028 32.592 18.8007 32.6928 19.0634 32.76C19.2036 32.7936 19.3262 32.8104 19.4314 32.844C19.4664 32.844 19.5014 32.844 19.5365 32.844C19.7117 32.8944 19.9044 32.9279 20.0796 32.9615C20.0971 32.9615 20.1146 32.9615 20.1321 32.9615C21.3235 32.9951 22.0768 31.7522 21.4636 30.778C21.2534 30.4252 20.8855 30.1733 20.465 30.0893C15.9625 29.1823 12.5637 25.3526 12.5637 20.7503C12.5637 18.0965 13.685 15.6945 15.507 13.9813C17.3115 12.268 19.7817 11.2266 22.5148 11.2266C22.725 11.2266 22.9528 11.2266 23.163 11.2434C23.2331 11.2434 23.2856 11.2434 23.3557 11.2602C23.4258 11.2602 23.4959 11.277 23.5659 11.277C23.636 11.277 23.7061 11.2938 23.7762 11.2938C23.8463 11.2938 23.9163 11.3106 23.9864 11.3274C24.0565 11.3274 24.1266 11.3442 24.1966 11.361C24.2842 11.3778 24.3718 11.3946 24.4419 11.4114C24.547 11.4282 24.6697 11.4618 24.7748 11.4786H24.7923C24.8624 11.4954 24.9325 11.5122 24.985 11.5289C25.0551 11.5457 25.1077 11.5625 25.1777 11.5793C25.2303 11.5961 25.2653 11.5961 25.3179 11.6129C25.3704 11.6297 25.423 11.6465 25.4756 11.6633C25.5106 11.6801 25.5456 11.6801 25.5982 11.6969C25.6508 11.7137 25.7033 11.7305 25.7559 11.7473C25.826 11.7641 25.8785 11.7809 25.9486 11.8145C26.0011 11.8313 26.0712 11.8649 26.1413 11.8817C26.2114 11.8985 26.2815 11.9321 26.334 11.9489C26.3866 11.9657 26.4567 11.9993 26.5092 12.0161C26.5618 12.0328 26.6318 12.0664 26.6844 12.1C26.737 12.1336 26.807 12.1504 26.8596 12.184C26.9472 12.2344 27.0523 12.268 27.1399 12.3184C27.1925 12.352 27.245 12.3688 27.2801 12.4024C27.3151 12.4192 27.3501 12.436 27.3677 12.4528C27.4202 12.4864 27.4903 12.52 27.5429 12.5535C27.5954 12.5871 27.648 12.6207 27.7181 12.6543C27.7706 12.6879 27.8232 12.7215 27.8757 12.7551C27.9283 12.7887 27.9808 12.8223 28.0334 12.8559C28.1035 12.9063 28.1736 12.9399 28.2261 12.9903C28.2612 13.0239 28.3137 13.0407 28.3488 13.0742C28.4188 13.1246 28.4714 13.1582 28.5415 13.2086C28.5765 13.2422 28.6291 13.2758 28.6641 13.2926C28.6641 13.2926 28.6816 13.2926 28.6816 13.3094C28.7517 13.3598 28.8218 13.4102 28.8743 13.4606C28.9094 13.4774 28.9444 13.511 28.9619 13.5278C29.0495 13.6117 29.1546 13.6789 29.2422 13.7629C29.2598 13.7797 29.2773 13.7797 29.2773 13.7965C29.3649 13.8637 29.4525 13.9477 29.5226 14.0317C29.6277 14.1156 29.7153 14.2164 29.8029 14.3172C29.8905 14.4012 29.9605 14.4852 30.0306 14.5692C30.1357 14.6699 30.2233 14.7875 30.3109 14.9051C30.346 14.9555 30.381 14.9891 30.416 15.0395C30.5212 15.157 30.6088 15.2914 30.6964 15.409C30.7314 15.4594 30.784 15.5266 30.819 15.577C30.854 15.6273 30.8891 15.6777 30.9241 15.7449C31.0117 15.8793 31.0993 16.0137 31.1694 16.148C31.2219 16.232 31.257 16.316 31.3095 16.4C31.3621 16.484 31.3971 16.568 31.4497 16.6519C31.5198 16.7695 31.5723 16.9039 31.6249 17.0215C32.203 18.298 33.955 18.6843 35.0237 17.7269L35.0412 17.7101C35.0587 17.6933 35.0762 17.6765 35.0937 17.6597L39.5612 13.3766C40.4547 12.52 40.5948 11.1594 39.8765 10.1684C35.9347 4.50793 29.1897 0.896637 21.5862 0.997418C9.79566 1.16538 0.177489 10.3868 0.00229427 21.691C-0.1729 33.4318 9.70807 42.9892 21.9016 42.9892C29.3824 42.9892 35.9872 39.3947 39.9466 33.9021C40.6649 32.9111 40.5248 31.5506 39.6313 30.694ZM37.6341 11.2434L34.6558 14.0988L34.0776 14.6531C34.0776 14.6531 32.641 12.3016 29.7503 9.7485C27.0874 7.41376 23.1805 4.91105 18.0123 3.92004C18.0123 3.95364 29.7678 0.795857 37.6341 11.2434ZM17.0837 39.6466C17.0837 39.6466 27.6305 39.2939 33.9024 29.0647L37.5815 32.592C37.599 32.6088 30.9241 42.9724 17.0837 39.6466Z" fill="url(#paint0_linear_815_92)"/>
<path d="M59.6601 18.4928C58.6254 18.4928 57.7116 18.2784 56.9187 17.8494C56.1393 17.4205 55.5345 16.8162 55.1045 16.0363C54.6745 15.2435 54.4595 14.3337 54.4595 13.3069V9.71973C54.4595 8.69295 54.6745 7.78965 55.1045 7.00982C55.548 6.217 56.1662 5.60613 56.959 5.17722C57.7653 4.74832 58.6926 4.53386 59.7408 4.53386H61.8775C62.8854 4.53386 63.7723 4.74182 64.5383 5.15773C65.3043 5.57364 65.8956 6.15851 66.3121 6.91234C66.7422 7.65318 66.9572 8.51749 66.9572 9.50528H64.2158C64.2158 8.72545 64.0007 8.10158 63.5707 7.63369C63.1407 7.15279 62.5763 6.91234 61.8775 6.91234H59.7408C58.9882 6.91234 58.3835 7.18528 57.9266 7.73116C57.4697 8.26405 57.2412 8.96589 57.2412 9.8367V13.19C57.2412 14.0608 57.463 14.7691 57.9064 15.315C58.3499 15.8479 58.9345 16.1143 59.6601 16.1143H61.8372C62.5494 16.1143 63.1272 15.8479 63.5707 15.315C64.0276 14.7821 64.2561 14.0803 64.2561 13.2095H66.9975C66.9975 14.2622 66.7825 15.1915 66.3525 15.9974C65.9224 16.7902 65.3177 17.4075 64.5383 17.8494C63.7589 18.2784 62.8585 18.4928 61.8372 18.4928H59.6601Z" fill="white"/>
<path d="M71.8449 18.4928C70.7967 18.4928 69.9501 18.2394 69.3051 17.7325C68.66 17.2256 68.3375 16.5562 68.3375 15.7244V15.0031C68.3375 14.1843 68.6735 13.5279 69.3454 13.034C70.0173 12.5271 70.9043 12.2737 72.0062 12.2737H73.2358C73.5852 12.2737 73.9615 12.3192 74.3646 12.4101C74.7678 12.5011 75.1374 12.6246 75.4733 12.7806V11.7668C75.4733 11.4419 75.3591 11.1819 75.1306 10.987C74.9156 10.779 74.6267 10.675 74.2639 10.675H72.5303C72.154 10.675 71.8517 10.7595 71.6232 10.9285C71.3948 11.0974 71.2805 11.3249 71.2805 11.6108H68.6197C68.6197 10.662 68.9758 9.90169 69.6881 9.32981C70.4137 8.74494 71.3612 8.45251 72.5303 8.45251H74.2639C75.4464 8.45251 76.4006 8.75794 77.1262 9.36881C77.8519 9.96668 78.2147 10.766 78.2147 11.7668V18.3368H75.6749V17.1671C75.3524 17.57 74.9559 17.8949 74.4856 18.1419C74.0152 18.3758 73.5516 18.4928 73.0947 18.4928H71.8449ZM73.2963 16.4653C73.7935 16.4653 74.237 16.3418 74.6267 16.0948C75.0164 15.8479 75.2986 15.5165 75.4733 15.1006V14.7691C75.2583 14.6132 74.9559 14.4897 74.5662 14.3987C74.1899 14.3077 73.7868 14.2622 73.3568 14.2622H72.0868C71.7643 14.2622 71.5023 14.3402 71.3007 14.4962C71.0991 14.6521 70.9983 14.8601 70.9983 15.12V15.6269C70.9983 15.8739 71.1058 16.0753 71.3208 16.2313C71.5493 16.3873 71.8449 16.4653 72.2078 16.4653H73.2963Z" fill="white"/>
<path d="M80.4318 8.60847H82.9716V9.8562C83.227 9.47928 83.5898 9.17385 84.0601 8.9399C84.5439 8.69295 85.0479 8.56948 85.572 8.56948H86.9427V10.87H85.572C84.8597 10.87 84.2819 11.0779 83.8384 11.4938C83.3949 11.9098 83.1732 12.4426 83.1732 13.0925V18.3368H80.4318V8.60847Z" fill="white"/>
<path d="M91.6155 18.3368C90.4194 18.3368 89.5392 18.0964 88.9748 17.6155C88.4238 17.1216 88.1484 16.3613 88.1484 15.3345V4.68983H90.8898V15.1785C90.8898 15.4905 90.9637 15.7179 91.1115 15.8609C91.2593 16.0039 91.4945 16.0753 91.817 16.0753H92.9056V18.3368H91.6155Z" fill="white"/>
<path d="M95.8465 7.69217C95.3224 7.69217 94.8991 7.54921 94.5766 7.26327C94.2675 6.96433 94.113 6.57442 94.113 6.09352C94.113 5.61263 94.2675 5.22921 94.5766 4.94327C94.8991 4.64434 95.3224 4.49487 95.8465 4.49487C96.3706 4.49487 96.7872 4.64434 97.0963 4.94327C97.4188 5.22921 97.5801 5.61263 97.5801 6.09352C97.5801 6.57442 97.4188 6.96433 97.0963 7.26327C96.7872 7.54921 96.3706 7.69217 95.8465 7.69217ZM94.4758 8.60847H97.2172V18.3368H94.4758V8.60847Z" fill="white"/>
<path d="M99.9201 8.60847H102.46V9.77822C102.756 9.3753 103.139 9.05687 103.609 8.82293C104.079 8.57598 104.55 8.45251 105.02 8.45251H106.229C107.304 8.45251 108.165 8.77744 108.81 9.42729C109.468 10.0772 109.797 10.935 109.797 12.0007V18.3368H107.056V12.0982C107.056 11.6953 106.942 11.3704 106.713 11.1234C106.498 10.8765 106.216 10.753 105.867 10.753H104.657C104.187 10.753 103.763 10.922 103.387 11.2599C103.024 11.5848 102.782 12.0137 102.662 12.5466V18.3368H99.9201V8.60847Z" fill="white"/>
<path d="M58.2819 39.4896C57.0987 39.4896 56.1659 39.1475 55.4833 38.4633C54.8008 37.779 54.4595 36.8439 54.4595 35.6578H56.4219C56.4219 36.2965 56.5868 36.8039 56.9167 37.1803C57.258 37.5452 57.7244 37.7277 58.316 37.7277H60.2101C60.7676 37.7277 61.2169 37.6079 61.5582 37.3685C61.8995 37.1176 62.0701 36.7925 62.0701 36.3934V35.6407C62.0701 35.3328 61.9507 35.0762 61.7118 34.8709C61.4729 34.6656 61.1316 34.5231 60.6879 34.4433L57.5822 33.913C56.6153 33.7533 55.8701 33.434 55.3468 32.955C54.8349 32.476 54.5789 31.8659 54.5789 31.1246V30.1838C54.5789 29.6021 54.7325 29.0889 55.0397 28.6442C55.3582 28.1994 55.8019 27.8573 56.3707 27.6178C56.9395 27.3669 57.5993 27.2415 58.3501 27.2415H60.2784C60.9837 27.2415 61.6037 27.3897 62.1384 27.6862C62.6845 27.9713 63.1054 28.3819 63.4012 28.9179C63.6969 29.4539 63.8448 30.0697 63.8448 30.7654H61.8995C61.8995 30.2408 61.7459 29.8188 61.4388 29.4995C61.143 29.1688 60.7562 29.0034 60.2784 29.0034H58.3501C57.8154 29.0034 57.3832 29.1232 57.0532 29.3627C56.7347 29.5907 56.5754 29.9044 56.5754 30.3035V30.9193C56.5754 31.2387 56.6892 31.5067 56.9167 31.7233C57.1443 31.9286 57.4742 32.0655 57.9065 32.1339L61.0122 32.6813C61.9905 32.8524 62.7413 33.1717 63.2646 33.6393C63.7993 34.0954 64.0667 34.6827 64.0667 35.4012V36.5131C64.0667 37.0947 63.9074 37.6136 63.5889 38.0698C63.2703 38.5146 62.821 38.8624 62.2408 39.1133C61.6606 39.3642 60.9951 39.4896 60.2443 39.4896H58.2819Z" fill="url(#paint1_linear_815_92)"/>
<path d="M68.9724 39.4896C67.9258 39.4896 67.0839 39.1874 66.4469 38.583C65.8098 37.9672 65.4913 37.1575 65.4913 36.1539V34.0327C65.4913 33.3713 65.6335 32.7896 65.9179 32.2878C66.2137 31.7747 66.6232 31.3812 67.1465 31.1075C67.6812 30.8224 68.2955 30.6798 68.9894 30.6798H70.4911C71.1851 30.6798 71.7937 30.8224 72.317 31.1075C72.8517 31.3812 73.2612 31.7747 73.5456 32.2878C73.8414 32.7896 73.9893 33.3713 73.9893 34.0327V36.1539C73.9893 37.1575 73.6651 37.9672 73.0166 38.583C72.3796 39.1874 71.5263 39.4896 70.457 39.4896H68.9724ZM70.4399 37.7961C70.9177 37.7961 71.2988 37.6365 71.5832 37.3171C71.879 36.9864 72.0269 36.5587 72.0269 36.0342V34.1353C72.0269 33.6107 71.8847 33.1888 71.6003 32.8695C71.3159 32.5387 70.9348 32.3734 70.457 32.3734H69.0236C68.5458 32.3734 68.1647 32.5387 67.8803 32.8695C67.5959 33.1888 67.4537 33.6107 67.4537 34.1353V36.0342C67.4537 36.5587 67.5959 36.9864 67.8803 37.3171C68.1647 37.6365 68.5344 37.7961 68.9894 37.7961H70.4399Z" fill="url(#paint2_linear_815_92)"/>
<path d="M78.5785 39.3528C77.6229 39.3528 76.9233 39.1532 76.4796 38.7541C76.0473 38.3435 75.8312 37.6992 75.8312 36.821V27.3783H77.7936V36.7355C77.7936 37.0662 77.8618 37.3057 77.9983 37.454C78.1348 37.5908 78.3624 37.6593 78.6809 37.6593H79.5V39.3528H78.5785Z" fill="url(#paint3_linear_815_92)"/>
<path d="M83.4949 39.4896C82.6417 39.4896 81.9477 39.1988 81.413 38.6172C80.8897 38.0242 80.6281 37.2544 80.6281 36.3079V30.8167H82.5905V36.3421C82.5905 36.7754 82.6929 37.1233 82.8976 37.3856C83.1138 37.6479 83.3925 37.779 83.7338 37.779H84.7576C85.1899 37.779 85.5767 37.6079 85.918 37.2658C86.2707 36.9123 86.5096 36.4561 86.6347 35.8973V30.8167H88.5971V39.3528H86.7542V38.1896C86.5039 38.5773 86.174 38.8909 85.7644 39.1304C85.3663 39.3699 84.9852 39.4896 84.6211 39.4896H83.4949Z" fill="url(#paint4_linear_815_92)"/>
<path d="M94.3796 39.3528C93.4127 39.3528 92.7073 39.1361 92.2637 38.7028C91.82 38.2694 91.5982 37.5851 91.5982 36.65V32.5102H90.0965V30.8167H91.6494V28.2336H93.5606V30.8167H95.7789V32.5102H93.5606V36.5816C93.5606 36.9579 93.6345 37.2316 93.7824 37.4027C93.9303 37.5737 94.1635 37.6593 94.482 37.6593H95.7789V39.3528H94.3796Z" fill="url(#paint5_linear_815_92)"/>
<path d="M98.9079 29.8587C98.5211 29.8587 98.2083 29.7447 97.9694 29.5166C97.7419 29.2771 97.6281 28.9749 97.6281 28.61C97.6281 28.245 97.7419 27.9485 97.9694 27.7204C98.2083 27.4809 98.5211 27.3612 98.9079 27.3612C99.2947 27.3612 99.6076 27.4809 99.8465 27.7204C100.085 27.9485 100.205 28.245 100.205 28.61C100.205 28.9749 100.085 29.2771 99.8465 29.5166C99.6076 29.7447 99.2947 29.8587 98.9079 29.8587ZM97.9353 30.8167H99.8977V39.3528H97.9353V30.8167Z" fill="url(#paint6_linear_815_92)"/>
<path d="M105.534 39.4896C104.487 39.4896 103.646 39.1874 103.008 38.583C102.371 37.9672 102.053 37.1575 102.053 36.1539V34.0327C102.053 33.3713 102.195 32.7896 102.479 32.2878C102.775 31.7747 103.185 31.3812 103.708 31.1075C104.243 30.8224 104.857 30.6798 105.551 30.6798H107.053C107.747 30.6798 108.355 30.8224 108.879 31.1075C109.413 31.3812 109.823 31.7747 110.107 32.2878C110.403 32.7896 110.551 33.3713 110.551 34.0327V36.1539C110.551 37.1575 110.227 37.9672 109.578 38.583C108.941 39.1874 108.088 39.4896 107.019 39.4896H105.534ZM107.001 37.7961C107.479 37.7961 107.86 37.6365 108.145 37.3171C108.441 36.9864 108.588 36.5587 108.588 36.0342V34.1353C108.588 33.6107 108.446 33.1888 108.162 32.8695C107.877 32.5387 107.496 32.3734 107.019 32.3734H105.585C105.107 32.3734 104.726 32.5387 104.442 32.8695C104.157 33.1888 104.015 33.6107 104.015 34.1353V36.0342C104.015 36.5587 104.157 36.9864 104.442 37.3171C104.726 37.6365 105.096 37.7961 105.551 37.7961H107.001Z" fill="url(#paint7_linear_815_92)"/>
<path d="M112.393 30.8167H114.219V31.9286C114.469 31.5523 114.799 31.2501 115.208 31.022C115.618 30.7939 116.027 30.6798 116.437 30.6798H117.495C118.371 30.6798 119.071 30.9592 119.594 31.5181C120.129 32.0769 120.396 32.8124 120.396 33.7248V39.3528H118.433V33.7761C118.433 33.3656 118.325 33.0348 118.109 32.7839C117.904 32.5216 117.631 32.3905 117.29 32.3905H116.232C115.789 32.3905 115.39 32.5616 115.038 32.9037C114.685 33.2344 114.458 33.6621 114.355 34.1867V39.3528H112.393V30.8167Z" fill="url(#paint8_linear_815_92)"/>
<path d="M125.29 39.4896C124.312 39.4896 123.527 39.2273 122.935 38.7028C122.344 38.1782 122.048 37.4825 122.048 36.6158H123.976C123.976 36.9807 124.096 37.2772 124.335 37.5053C124.574 37.722 124.892 37.8303 125.29 37.8303H126.809C127.196 37.8303 127.497 37.7676 127.713 37.6422C127.941 37.5053 128.055 37.3228 128.055 37.0948V36.7184C128.055 36.5587 127.986 36.4219 127.85 36.3079C127.725 36.1938 127.548 36.114 127.321 36.0684L124.369 35.5552C123.709 35.4411 123.186 35.2016 122.799 34.8367C122.412 34.4604 122.219 34.027 122.219 33.5366V32.9721C122.219 32.265 122.497 31.7062 123.055 31.2957C123.624 30.8851 124.403 30.6798 125.393 30.6798H126.758C127.657 30.6798 128.385 30.925 128.942 31.4154C129.499 31.9058 129.778 32.5501 129.778 33.3484H127.85C127.85 33.0405 127.748 32.7953 127.543 32.6129C127.349 32.4304 127.088 32.3392 126.758 32.3392H125.41C125.012 32.3392 124.704 32.4019 124.488 32.5273C124.272 32.6528 124.164 32.8296 124.164 33.0576V33.3998C124.164 33.5594 124.227 33.6963 124.352 33.8103C124.488 33.9244 124.665 33.9985 124.881 34.0327L127.935 34.5801C128.561 34.7056 129.061 34.945 129.437 35.2986C129.812 35.6521 130 36.0684 130 36.5473V37.1803C130 37.8873 129.71 38.4519 129.13 38.8738C128.55 39.2844 127.776 39.4896 126.809 39.4896H125.29Z" fill="url(#paint9_linear_815_92)"/>
</g>
<defs>
<linearGradient id="paint0_linear_815_92" x1="1.86584e-07" y1="21.9923" x2="40.4054" y2="21.9923" gradientUnits="userSpaceOnUse">
<stop stop-color="#68C2FF"/>
<stop offset="1" stop-color="#D79CFF"/>
</linearGradient>
<linearGradient id="paint1_linear_815_92" x1="54.4595" y1="33.3656" x2="130" y2="33.3655" gradientUnits="userSpaceOnUse">
<stop stop-color="#68C2FF"/>
<stop offset="1" stop-color="#D79CFF"/>
</linearGradient>
<linearGradient id="paint2_linear_815_92" x1="54.4595" y1="33.3656" x2="130" y2="33.3655" gradientUnits="userSpaceOnUse">
<stop stop-color="#68C2FF"/>
<stop offset="1" stop-color="#D79CFF"/>
</linearGradient>
<linearGradient id="paint3_linear_815_92" x1="54.4595" y1="33.3656" x2="130" y2="33.3655" gradientUnits="userSpaceOnUse">
<stop stop-color="#68C2FF"/>
<stop offset="1" stop-color="#D79CFF"/>
</linearGradient>
<linearGradient id="paint4_linear_815_92" x1="54.4595" y1="33.3656" x2="130" y2="33.3655" gradientUnits="userSpaceOnUse">
<stop stop-color="#68C2FF"/>
<stop offset="1" stop-color="#D79CFF"/>
</linearGradient>
<linearGradient id="paint5_linear_815_92" x1="54.4595" y1="33.3656" x2="130" y2="33.3655" gradientUnits="userSpaceOnUse">
<stop stop-color="#68C2FF"/>
<stop offset="1" stop-color="#D79CFF"/>
</linearGradient>
<linearGradient id="paint6_linear_815_92" x1="54.4595" y1="33.3656" x2="130" y2="33.3655" gradientUnits="userSpaceOnUse">
<stop stop-color="#68C2FF"/>
<stop offset="1" stop-color="#D79CFF"/>
</linearGradient>
<linearGradient id="paint7_linear_815_92" x1="54.4595" y1="33.3656" x2="130" y2="33.3655" gradientUnits="userSpaceOnUse">
<stop stop-color="#68C2FF"/>
<stop offset="1" stop-color="#D79CFF"/>
</linearGradient>
<linearGradient id="paint8_linear_815_92" x1="54.4595" y1="33.3656" x2="130" y2="33.3655" gradientUnits="userSpaceOnUse">
<stop stop-color="#68C2FF"/>
<stop offset="1" stop-color="#D79CFF"/>
</linearGradient>
<linearGradient id="paint9_linear_815_92" x1="54.4595" y1="33.3656" x2="130" y2="33.3655" gradientUnits="userSpaceOnUse">
<stop stop-color="#68C2FF"/>
<stop offset="1" stop-color="#D79CFF"/>
</linearGradient>
<clipPath id="clip0_815_92">
<rect width="130" height="41.9938" fill="white" transform="translate(0 0.995361)"/>
</clipPath>
</defs>
</svg>
